<svg xmlns="http://www.w3.org/2000/svg" xmlns:xlink="http://www.w3.org/1999/xlink" width="512" height="512" x="0" y="0" viewBox="0 0 512 512" style="enable-background:new 0 0 512 512" xml:space="preserve"><g><circle cx="256" cy="124.289" r="10" fill="#FFFFFF" opacity="1" data-original="#000000"></circle><circle cx="441.461" cy="231.317" r="11.483" fill="#FFFFFF" opacity="1" data-original="#000000"></circle><path d="m162.668 172.386-9.911 28.274-9.762-28.616c-1.36-3.985-5.2-6.741-9.402-6.777-4.214-.036-8.1 2.678-9.519 6.648l-10.36 29.072-9.787-28.478c-1.774-5.164-7.569-7.995-12.732-6.219-5.162 1.775-7.994 7.568-6.219 12.732l19.09 55.551a10.02 10.02 0 0 0 9.419 6.763h.057a10.02 10.02 0 0 0 9.438-6.656l10.326-28.975 9.841 28.846a10.02 10.02 0 0 0 9.441 6.785h.043a10.02 10.02 0 0 0 9.455-6.705l19.495-55.617c1.806-5.152-.99-10.964-6.141-12.77-5.154-1.805-10.966.99-12.772 6.142zM207.154 166.29c-5.233 1.798-8.018 7.499-6.219 12.732l19.09 55.551a10.02 10.02 0 0 0 9.419 6.763h.057a10.02 10.02 0 0 0 9.438-6.656l10.326-28.974 9.84 28.845a10.021 10.021 0 0 0 9.441 6.785h.042c4.254 0 8.047-2.688 9.456-6.705l19.495-55.617c1.805-5.152-.99-10.965-6.142-12.77-5.152-1.806-10.964.989-12.77 6.141l-9.911 28.275-9.761-28.616c-1.363-3.985-5.198-6.742-9.404-6.777-4.212-.035-8.104 2.677-9.517 6.648l-10.36 29.072-9.787-28.478c-1.8-5.233-7.5-8.02-12.733-6.219zM345.402 241.337h.057c4.235 0 8.016-2.663 9.438-6.656l10.325-28.974 9.84 28.845a10.021 10.021 0 0 0 9.441 6.785h.042c4.254 0 8.047-2.688 9.456-6.705l19.495-55.617c1.805-5.152-.99-10.965-6.142-12.77-5.152-1.806-10.964.989-12.77 6.141l-9.911 28.275-9.761-28.616c-1.359-3.99-5.204-6.745-9.412-6.776-4.196-.031-8.112 2.674-9.51 6.648l-10.36 29.072-9.787-28.478c-1.774-5.163-7.569-7.995-12.732-6.219-5.162 1.775-7.994 7.568-6.219 12.732l19.09 55.551a10.025 10.025 0 0 0 9.42 6.762z" fill="#FFFFFF" opacity="1" data-original="#000000"></path><path d="M422.225 114.267H300.918c-5.533 0-10.02 4.486-10.02 10.02s4.486 10.02 10.02 10.02h121.307c38.452 0 69.736 31.284 69.736 69.736 0 18.629-7.255 36.138-20.433 49.308-13.164 13.173-30.673 20.428-49.302 20.428h-133.75l-23.455-14.463a10.018 10.018 0 0 0-15.242 9.383l.435 5.079H89.775c-38.453 0-69.736-31.284-69.736-69.736 0-18.629 7.255-36.138 20.433-49.307 13.165-13.174 30.675-20.429 49.303-20.429h121.307c5.534 0 10.02-4.486 10.02-10.02s-4.486-10.02-10.02-10.02H89.775c-23.984 0-46.527 9.341-63.473 26.298C9.341 157.515 0 180.058 0 204.042c0 49.502 40.273 89.775 89.775 89.775H251.93l5.772 67.386a10.02 10.02 0 0 0 15.237 7.677l9.954-6.129 18.602 30.214a10.012 10.012 0 0 0 8.542 4.768c1.792 0 3.606-.48 5.244-1.489l34.128-21.012c4.711-2.901 6.18-9.073 3.279-13.785l-18.602-30.214 9.955-6.129a10.019 10.019 0 0 0 .006-17.061l-23.073-14.227h101.251c23.984 0 46.527-9.341 63.472-26.298C502.659 250.569 512 228.026 512 204.042c0-49.502-40.273-89.775-89.775-89.775zm-108.919 259.66-18.602-30.214a10.012 10.012 0 0 0-8.542-4.768c-1.792 0-3.606.48-5.244 1.489l-4.638 2.856-4.838-56.472 48.244 29.748-4.639 2.856c-4.711 2.901-6.18 9.073-3.279 13.785l18.602 30.214z" fill="#FFFFFF" opacity="1" data-original="#000000"></path></g></svg>