<svg xmlns="http://www.w3.org/2000/svg" xmlns:xlink="http://www.w3.org/1999/xlink" width="512" height="512" x="0" y="0" viewBox="0 0 512 512" style="enable-background:new 0 0 512 512" xml:space="preserve"><g><path fill-rule="evenodd" d="M170.852 281.442H31.269a8 8 0 0 1 0-16h139.583a8 8 0 0 1 0 16zm-15.269-53.724a8 8 0 0 0-8-8H8a8 8 0 0 0 0 16h139.583a8 8 0 0 0 8-8zM46.271 189.993h139.582a8 8 0 0 0 0-16H46.271a8 8 0 0 0 0 16zM512 260.231v99.021c0 11.498-9.354 20.853-20.853 20.853h-20.71c-3.751 19.497-20.93 34.274-41.505 34.274s-37.754-14.777-41.505-34.274H223.905c-3.751 19.497-20.93 34.274-41.505 34.274s-37.754-14.777-41.505-34.274H96.137c-13.86 0-25.137-11.276-25.137-25.137V305.91a8 8 0 0 1 16 0v49.058c0 5.038 4.099 9.137 9.137 9.137h44.758c3.75-19.496 20.93-34.273 41.505-34.273s37.754 14.777 41.505 34.273h121.958V122.757c0-5.038-4.099-9.137-9.137-9.137H96.137c-5.038 0-9.137 4.099-9.137 9.137v26.767a8 8 0 0 1-16 0v-26.767c0-13.86 11.276-25.137 25.137-25.137h240.589c13.86 0 25.137 11.276 25.137 25.137v29.857h86.699c12.325 0 22.809 6.658 27.359 17.376l33.991 80.035c1.425 3.358 2.088 6.6 2.088 10.206zM208.674 372.105c0-14.487-11.787-26.273-26.274-26.273s-26.274 11.786-26.274 26.273 11.787 26.274 26.274 26.274 26.274-11.786 26.274-26.274zm246.532 0c0-14.487-11.787-26.273-26.274-26.273s-26.274 11.786-26.274 26.273 11.787 26.274 26.274 26.274 26.274-11.786 26.274-26.274zM496 359.253v-9.647h-13.746c-7.678 0-13.925-6.247-13.925-13.925v-24.885c0-7.678 6.247-13.925 13.925-13.925H496v-36.64c0-1.462-.229-2.571-.815-3.954l-33.99-80.033c-1.999-4.706-6.839-7.63-12.633-7.63h-86.699v195.491h25.564c3.75-19.496 20.93-34.273 41.505-34.273s37.754 14.777 41.505 34.273h20.71a4.858 4.858 0 0 0 4.853-4.852zm-11.671-46.382v20.734H496v-20.734zm-10.111-51.037h-94.013a8 8 0 0 1-8-8v-66.877a8 8 0 0 1 8-8h65.61a7.999 7.999 0 0 1 7.363 4.873l28.402 66.877a8 8 0 0 1-7.362 11.127zm-12.089-16-21.607-50.877h-52.316v50.877zm-279.73 114.594c-6.454 0-11.677 5.224-11.677 11.677s5.224 11.677 11.677 11.677c6.454 0 11.678-5.223 11.678-11.677s-5.223-11.677-11.678-11.677zm246.532 0c-6.454 0-11.677 5.224-11.677 11.677s5.223 11.677 11.677 11.677 11.678-5.223 11.678-11.677-5.224-11.677-11.678-11.677z" clip-rule="evenodd" fill="#FFFFFF" opacity="1" data-original="#000000"></path></g></svg>